<?xml version="1.0" encoding="UTF-8"?>
<svg width="752pt" height="752pt" version="1.1" viewBox="0 0 752 752" xmlns="http://www.w3.org/2000/svg">
 <g>
  <path d="m376.86 475.89c-0.4375 0-0.89062-0.11328-1.2891-0.33984-0.82031-0.46094-1.3242-1.332-1.3242-2.2695v-96.703c0-0.91406 0.48047-1.7617 1.2656-2.2344l80.391-48.348c0.80078-0.48047 1.8047-0.49609 2.6328-0.035157 0.82031 0.46484 1.3242 1.332 1.3242 2.2773v96.988c0 0.91797-0.48047 1.7695-1.2734 2.2422l-80.391 48.062c-0.41016 0.23438-0.87891 0.35938-1.3359 0.35938zm2.6094-97.836v90.621l75.168-44.941v-90.887z"/>
  <path d="m376.57 476.74c-0.46094 0-0.92578-0.125-1.3359-0.36719l-81.816-48.926c-0.78516-0.47266-1.2734-1.3242-1.2734-2.2422l-0.003907-97.266c0-0.94141 0.5-1.8047 1.3164-2.2695 0.81641-0.45312 1.8164-0.46094 2.6172 0.015625l81.832 48.359c0.78516 0.46484 1.2734 1.3242 1.2734 2.2422v97.84c0 0.94141-0.5 1.8125-1.3242 2.2695-0.39453 0.23047-0.83984 0.34375-1.2852 0.34375zm-79.207-53.012 76.594 45.805v-91.766l-76.594-45.262z"/>
  <path d="m376.86 379.18c-0.46094 0-0.91797-0.125-1.332-0.36328l-82.105-48.633c-0.78125-0.46484-1.2734-1.3086-1.2812-2.2227-0.007813-0.91406 0.46094-1.7695 1.2461-2.25l81.246-50.066c0.82813-0.51563 1.8945-0.52344 2.7422 0l81.246 50.352c0.77344 0.48047 1.2461 1.3242 1.2383 2.2344-0.007813 0.91406-0.48047 1.75-1.2656 2.2227l-80.391 48.348c-0.41016 0.25391-0.87891 0.37891-1.3438 0.37891zm-77.055-51.293 77.047 45.637 75.391-45.344-76.238-47.246z"/>
  <path d="m338.23 383.19c-0.44531 0-0.90625-0.11719-1.3086-0.34766l-16.305-9.4375c-0.80859-0.46484-1.3086-1.332-1.3086-2.2617v-27.184c0-0.89062 0.45312-1.7266 1.2188-2.207l79.535-50.348c0.83594-0.53516 1.9141-0.54297 2.7656-0.015625l15.383 9.543c0.23828 0.10547 0.46484 0.24219 0.67578 0.42578l0.53516 0.33594c1.2344 0.75781 1.6016 2.375 0.84375 3.6016-0.64062 1.043-1.9141 1.4688-3.0312 1.1055l-76.406 48.445v25.742c0 0.93359-0.49609 1.7969-1.3086 2.2617-0.39063 0.23047-0.83594 0.33984-1.2891 0.33984zm-13.691-13.559 11.082 6.4141v-22.648c0-0.89062 0.45312-1.7266 1.2109-2.207l75.418-47.816-10.773-6.6875-76.938 48.711z"/>
  <path d="m376 187.91c-10.586 0-19.188-8.6094-19.188-19.188 0-10.578 8.6016-19.188 19.188-19.188s19.188 8.6094 19.188 19.188c0 10.578-8.6016 19.188-19.188 19.188zm0-33.152c-7.6953 0-13.965 6.2617-13.965 13.965 0.003906 7.7031 6.2695 13.965 13.965 13.965s13.965-6.2617 13.965-13.965c0-7.7031-6.2695-13.965-13.965-13.965z"/>
  <path d="m229.43 248.62c-5.1172 0-9.9453-1.9922-13.559-5.6211-3.6289-3.6289-5.6289-8.4414-5.6289-13.566s2-9.9453 5.6289-13.566c7.25-7.25 19.898-7.2422 27.125 0h0.007812c3.6289 3.6289 5.6211 8.4414 5.6211 13.566s-2 9.9453-5.6211 13.566c-3.6289 3.625-8.4453 5.6211-13.574 5.6211zm0-33.145c-3.7266 0-7.2344 1.4492-9.875 4.0898-2.6328 2.6328-4.0898 6.1445-4.0898 9.8672 0 3.7266 1.457 7.2344 4.0938 9.875 5.2734 5.2734 14.48 5.2656 19.738 0 2.6406-2.6406 4.0938-6.1445 4.0938-9.875 0-3.7344-1.457-7.2344-4.0898-9.8672h-0.007813c-2.625-2.6406-6.1289-4.0898-9.8633-4.0898z"/>
  <path d="m168.73 395.19c-10.586 0-19.188-8.6094-19.188-19.188s8.6016-19.188 19.188-19.188c10.586 0 19.188 8.6094 19.188 19.188 0 10.582-8.6016 19.188-19.188 19.188zm0-33.148c-7.6953 0-13.965 6.2617-13.965 13.965s6.2617 13.965 13.965 13.965c7.7031-0.003906 13.965-6.2734 13.965-13.969s-6.2617-13.961-13.965-13.961z"/>
  <path d="m229.43 541.75c-5.1172 0-9.9453-1.9922-13.559-5.6211-3.6289-3.6211-5.6289-8.4414-5.6289-13.566s2-9.9453 5.6211-13.566h0.007812c7.25-7.25 19.891-7.2344 27.133 0 3.6211 3.6289 5.6211 8.4414 5.6211 13.566s-2 9.9453-5.6289 13.566c-3.6211 3.6328-8.4375 5.6211-13.566 5.6211zm-9.875-29.055c-2.6328 2.6406-4.0898 6.1445-4.0898 9.875 0 3.7344 1.457 7.2344 4.0898 9.8672 5.2852 5.2773 14.484 5.2656 19.746 0 2.6406-2.6328 4.0938-6.1445 4.0938-9.8672 0-3.7266-1.457-7.2344-4.0938-9.875-5.2578-5.2656-14.461-5.2695-19.746 0z"/>
  <path d="m376 602.46c-10.586 0-19.188-8.6094-19.188-19.188s8.6016-19.188 19.188-19.188 19.188 8.6094 19.188 19.188-8.6016 19.188-19.188 19.188zm0-33.152c-7.6953 0-13.965 6.2617-13.965 13.965s6.2617 13.965 13.965 13.965 13.965-6.2617 13.965-13.965-6.2695-13.965-13.965-13.965z"/>
  <path d="m522.57 541.75c-5.125 0-9.9453-1.9922-13.559-5.6211h-0.007812c-3.6289-3.6289-5.6211-8.4414-5.6211-13.566s2-9.9453 5.6211-13.566c7.2344-7.2422 19.875-7.2578 27.133 0 3.6289 3.6289 5.6289 8.4414 5.6289 13.566s-2 9.9453-5.6289 13.566c-3.6211 3.6328-8.4453 5.6211-13.566 5.6211zm0-33.141c-3.7344 0-7.2344 1.4492-9.8672 4.0898-2.6406 2.6406-4.0938 6.1445-4.0938 9.875 0 3.7344 1.457 7.2344 4.0898 9.8672h0.007813c5.2656 5.2656 14.465 5.2773 19.746 0 2.6328-2.6328 4.0898-6.1445 4.0898-9.8672 0-3.7266-1.457-7.2344-4.0938-9.875-2.6406-2.6367-6.1523-4.0898-9.8789-4.0898z"/>
  <path d="m583.28 395.19c-10.586 0-19.188-8.6094-19.188-19.188s8.6016-19.188 19.188-19.188c10.586 0 19.188 8.6094 19.188 19.188 0 10.582-8.6094 19.188-19.188 19.188zm0-33.148c-7.6953 0-13.965 6.2617-13.965 13.965s6.2617 13.965 13.965 13.965 13.965-6.2617 13.965-13.965c0-7.707-6.2695-13.965-13.965-13.965z"/>
  <path d="m522.57 248.62c-5.125 0-9.9453-2-13.566-5.6211-3.6211-3.6289-5.6211-8.4414-5.6211-13.566s2-9.9453 5.6289-13.566c7.2227-7.2422 19.875-7.2578 27.125 0 3.6289 3.6211 5.6289 8.4414 5.6289 13.566s-2 9.9453-5.6211 13.566h-0.007813c-3.6211 3.6289-8.4453 5.6211-13.566 5.6211zm0-33.145c-3.7344 0-7.2344 1.4492-9.8672 4.0898-2.6406 2.6328-4.0938 6.1445-4.0938 9.8672 0 3.7266 1.457 7.2344 4.0938 9.875 5.2656 5.2656 14.465 5.2734 19.746 0 2.6328-2.6406 4.0898-6.1445 4.0898-9.875 0-3.7344-1.457-7.2344-4.0898-9.8672-2.6406-2.6406-6.1523-4.0898-9.8789-4.0898z"/>
  <path d="m376 248.03c-1.4414 0-2.6133-1.1719-2.6133-2.6133l0.003906-42.711c0-1.4414 1.1719-2.6133 2.6133-2.6133s2.6133 1.1719 2.6133 2.6133v42.711c-0.003907 1.4414-1.1758 2.6133-2.6172 2.6133z"/>
  <path d="m283.66 286.28c-0.66797 0-1.3359-0.25781-1.8516-0.76562l-30.191-30.203c-1.0156-1.0156-1.0156-2.6758 0.007812-3.6914 1.0117-1.0156 2.6758-1.0156 3.6914 0l30.199 30.203c1.0156 1.0156 1.0156 2.6758-0.007813 3.6914-0.50391 0.50781-1.1797 0.76562-1.8477 0.76562z"/>
  <path d="m245.42 378.61h-42.711c-1.4414 0-2.6133-1.1719-2.6133-2.6133s1.1719-2.6133 2.6133-2.6133h42.711c1.4414 0 2.6133 1.1719 2.6133 2.6133s-1.1719 2.6133-2.6133 2.6133z"/>
  <path d="m253.46 501.15c-0.66797 0-1.3359-0.25781-1.8438-0.76562-1.0156-1.0156-1.0234-2.6758-0.007813-3.6914l30.199-30.203c1.0156-1.0156 2.6875-1.0156 3.6914 0 1.0156 1.0156 1.0234 2.6758 0.007812 3.6914l-30.199 30.203c-0.50391 0.51562-1.1758 0.76562-1.8477 0.76562z"/>
  <path d="m376 551.91c-1.4414 0-2.6133-1.1719-2.6133-2.6133l0.003906-42.711c0-1.4414 1.1719-2.6133 2.6133-2.6133s2.6133 1.1719 2.6133 2.6133v42.711c-0.003907 1.4414-1.1758 2.6133-2.6172 2.6133z"/>
  <path d="m498.54 501.15c-0.66797 0-1.3359-0.25781-1.8516-0.76562l-30.199-30.203c-1.0156-1.0156-1.0156-2.6758 0.007813-3.6914 1.0117-1.0156 2.6758-1.0156 3.6914 0l30.199 30.203c1.0156 1.0156 1.0156 2.6758-0.007813 3.6914-0.5 0.51562-1.1758 0.76562-1.8398 0.76562z"/>
  <path d="m549.3 378.61h-42.711c-1.4414 0-2.6133-1.1719-2.6133-2.6133s1.1719-2.6133 2.6133-2.6133h42.711c1.4414 0 2.6133 1.1719 2.6133 2.6133s-1.1719 2.6133-2.6133 2.6133z"/>
  <path d="m468.34 286.28c-0.66797 0-1.3359-0.25781-1.8438-0.76562-1.0156-1.0156-1.0234-2.6758-0.007812-3.6914l30.199-30.203c1.0156-1.0156 2.6875-1.0156 3.6914 0 1.0156 1.0156 1.0234 2.6758 0.007813 3.6914l-30.199 30.203c-0.51172 0.50781-1.1875 0.76562-1.8477 0.76562z"/>
 </g>
</svg>
